<svg width="1400" height="1015" viewBox="15 0 1400 1015" fill="#694bc2" xmlns="http://www.w3.org/2000/svg">
<path d="M11 640L246 619.5L472.5 640L663 558.5L897 492L1055 342L1126.5 242L1230.5 221.5L1379 102.5L1451 -0.5V1024H11V640Z"/>
<path d="M1455.18 35.2475C1460.01 28.5177 1458.48 19.1458 1451.75 14.3147C1445.02 9.4836 1435.64 11.0228 1430.81 17.7525L1455.18 35.2475ZM27.5 260L13.1603 255.599L13.1603 255.599L27.5 260ZM682 398.5C682 442.683 717.817 478.5 762 478.5C806.183 478.5 842 442.683 842 398.5C842 354.317 806.183 318.5 762 318.5C717.817 318.5 682 354.317 682 398.5ZM1124.5 234.034L1125.63 219.077L1124.5 234.034ZM263 611.924L267.347 597.567L263 611.924ZM668.457 564.311C716.564 525.236 754.608 471.904 776.307 403.006L747.693 393.994C727.76 457.282 693.092 505.652 649.543 541.025L668.457 564.311ZM1443 26.5C1430.81 17.7525 1430.81 17.7503 1430.82 17.749C1430.82 17.7496 1430.82 17.7491 1430.81 17.7504C1430.81 17.753 1430.81 17.7589 1430.8 17.7682C1430.79 17.7866 1430.77 17.8182 1430.73 17.8627C1430.67 17.9517 1430.57 18.0924 1430.43 18.2831C1430.15 18.6646 1429.72 19.2459 1429.15 20.0135C1428.01 21.5487 1426.29 23.8279 1424.04 26.7413C1419.53 32.5698 1412.89 40.9276 1404.4 50.9392C1387.41 70.9876 1363.14 97.541 1334.03 123.665C1274.92 176.694 1199.42 224.661 1125.63 219.077L1123.37 248.991C1210.36 255.575 1294.11 199.775 1354.06 145.995C1384.47 118.715 1409.68 91.1031 1427.29 70.3376C1436.1 59.9422 1443.03 51.2308 1447.77 45.0918C1450.15 42.0215 1451.98 39.5924 1453.22 37.9153C1453.85 37.0767 1454.33 36.4258 1454.65 35.9766C1454.82 35.752 1454.95 35.5778 1455.03 35.4557C1455.08 35.3947 1455.11 35.3466 1455.14 35.3119C1455.15 35.2945 1455.16 35.2804 1455.17 35.2697C1455.17 35.2643 1455.18 35.2587 1455.18 35.2561C1455.18 35.2513 1455.18 35.2475 1443 26.5ZM1125.63 219.077C1031.75 211.972 924.303 185.636 812.963 155.798C702.164 126.104 587.503 92.9357 481.079 73.131C374.854 53.3632 274.407 46.3813 192.175 70.6523C108.574 95.3276 44.9616 151.991 13.1603 255.599L41.8397 264.401C70.7316 170.272 126.862 121.209 200.668 99.4252C275.844 77.2366 370.467 83.062 475.59 102.625C580.515 122.15 693.48 154.836 805.197 184.775C916.374 214.57 1026.34 241.648 1123.37 248.991L1125.63 219.077ZM659.735 567.65C787.446 561.381 893.778 505.213 974.464 438.279C1055.05 371.424 1110.87 293.182 1137.83 240.909L1111.17 227.159C1085.96 276.042 1032.63 351.049 955.31 415.189C878.089 479.249 777.754 531.821 658.265 537.686L659.735 567.65ZM13.1603 255.599C-14.819 346.754 4.36349 427.345 52.2361 491.227C99.7377 554.614 174.916 600.925 258.653 626.28L267.347 597.567C188.078 573.565 118.995 530.286 76.2431 473.236C33.8617 416.682 16.7972 345.989 41.8397 264.401L13.1603 255.599ZM258.653 626.28C394.421 667.39 557.245 654.645 668.457 564.311L649.543 541.025C548.179 623.359 396.529 636.683 267.347 597.567L258.653 626.28ZM255.889 598.717C241.424 606.505 218.26 612.681 190.564 617.314C163.267 621.88 133.055 624.721 105.461 626.522C77.9103 628.32 53.2181 629.067 36.9781 629.488C29.0012 629.695 22.7359 629.831 19.4207 629.977C18.5945 630.014 17.7074 630.061 16.9356 630.131C16.606 630.161 15.9212 630.226 15.148 630.366C14.8227 630.424 13.9401 630.589 12.8765 630.948C12.3648 631.121 11.3095 631.504 10.0907 632.214C9.21395 632.725 6.2286 634.531 4.27028 638.361C1.58016 643.623 2.41902 649.357 5.07317 653.416C7.03689 656.418 9.52695 657.865 10.2962 658.298C12.1165 659.321 13.748 659.717 14.023 659.788C15.0409 660.048 15.9356 660.165 16.2311 660.204C17.0545 660.311 18.0029 660.392 18.8711 660.457L21.1289 630.543C20.3409 630.483 20.0803 630.451 20.1197 630.457C19.7027 660.003 19.6373 660.009 19.6336 660.009C19.6315 660.01 19.7198 660.002 19.9348 659.989C20.1392 659.977 20.4075 659.963 20.7492 659.948C23.6977 659.817 29.4285 659.694 37.7563 659.478C54.1256 659.053 79.2772 658.295 107.414 656.459C135.508 654.625 166.827 651.702 195.514 646.903C223.802 642.171 251.076 635.381 270.111 625.131L255.889 598.717Z"/>
</svg>
