<svg viewBox="0 0 1436 998" fill="none" xmlns="http://www.w3.org/2000/svg">
    <path d="M1436.82 405.929C1444.23 409.62 1453.24 406.6 1456.93 399.184C1460.62 391.768 1457.6 382.763 1450.18 379.072L1436.82 405.929ZM708.5 972.002L705.212 957.367L708.5 972.002ZM135.971 0.490007L16.989 29.5312L46.0302 148.513L165.012 119.472L135.971 0.490007ZM1450.18 379.072C1406.6 357.381 1365.35 349.343 1326.09 352.695C1286.9 356.041 1250.7 370.643 1217.01 392.706C1150.13 436.499 1091.48 510.852 1036.49 589.995C980.758 670.212 929.042 754.874 874.213 824.415C819.304 894.057 764.501 944.046 705.212 957.367L711.788 986.637C781.999 970.862 842.383 913.24 897.771 842.989C953.239 772.637 1006.93 685.123 1061.13 607.113C1116.08 528.031 1171.9 458.107 1233.44 417.804C1263.96 397.82 1295.46 385.419 1328.64 382.587C1361.74 379.761 1397.52 386.37 1436.82 405.929L1450.18 379.072ZM705.212 957.367C498.135 1003.89 285.385 889.064 155.041 708.351C24.8916 527.908 -19.9633 286.011 103.82 82.2904L78.1812 66.7123C-53.5361 283.491 -4.39111 538.593 130.71 725.901C265.615 912.938 489.365 1036.61 711.788 986.637L705.212 957.367Z" fill="#FFBE0B"/>
</svg>
