<svg viewBox="10 0 1515 611" fill="#694bc2" xmlns="http://www.w3.org/2000/svg">
    <path d="M10.5716 9.1116C7.04338 1.61621 -1.89301 -1.59982 -9.3884 1.9284C-16.8838 5.45662 -20.0998 14.393 -16.5716 21.8884L10.5716 9.1116ZM894.5 97.5L895.698 82.5479L894.5 97.5ZM1360 531C1360 575.183 1395.82 611 1440 611C1484.18 611 1520 575.183 1520 531C1520 486.817 1484.18 451 1440 451C1395.82 451 1360 486.817 1360 531ZM-16.5716 21.8884C37.9173 137.645 107.028 201.406 185.469 230.364C263.375 259.126 348.029 252.616 431.893 233.012C515.489 213.47 601.032 180.151 679.695 153.788C759.478 127.05 831.954 107.538 893.302 112.452L895.698 82.5479C827.517 77.0862 749.666 98.6983 670.162 125.343C589.538 152.363 506.836 184.684 425.064 203.799C343.56 222.852 265.724 228.014 195.859 202.221C126.527 176.625 62.5828 119.605 10.5716 9.1116L-16.5716 21.8884ZM893.302 112.452C1075.54 127.05 1175.39 208.261 1246.48 298.145C1282.47 343.646 1310.78 390.946 1339.26 434.456C1367.29 477.286 1395.72 516.841 1431.07 543.049L1448.93 518.951C1418.36 496.279 1392.45 460.956 1364.36 418.028C1336.71 375.779 1307.11 326.439 1270.01 279.535C1194.94 184.609 1087.96 97.9498 895.698 82.5479L893.302 112.452Z"/>
</svg>
